<svg id="Layer_1" data-name="Layer 1" xmlns="http://www.w3.org/2000/svg" xmlns:xlink="http://www.w3.org/1999/xlink" viewBox="0 0 90.66 97.85"><defs><style>.cls-1{fill:none;}.cls-2{clip-path:url(#clip-path);}.cls-3{fill:#fff;}.cls-4{fill:#3477bc;}.cls-5{fill:#f4c53d;}.cls-6{fill:#2a1000;}</style><clipPath id="clip-path" transform="translate(-626.45 -217.24)"><rect class="cls-1" x="626.45" y="217.24" width="90.66" height="97.85"/></clipPath></defs><title>tuil-logo</title><g class="cls-2"><path class="cls-3" d="M716.27,277.72h0V217.65H627.23v65s0,0,0,0a29,29,0,0,0,1,7.05l0,.05a20.07,20.07,0,0,0,13.93,13.1l.2.05.14,0,.54.13a72.87,72.87,0,0,0,8.83,1.47l4,.43.31,0c1.77.14,3.12.32,4.14.49.49.07,1,.17,1.45.28a9.13,9.13,0,0,1,1.14.32h0a15.21,15.21,0,0,1,8.85,7.66v0a15.2,15.2,0,0,1,8.84-7.65h0a9.06,9.06,0,0,1,1.14-.32c.48-.12,1-.21,1.45-.28,1-.17,2.38-.35,4.14-.49l.31,0,4-.43a73,73,0,0,0,8.83-1.46L701,303l.14,0,.2-.05a20.07,20.07,0,0,0,13.93-13.1l0-.05a24.38,24.38,0,0,0,1-6.32Z" transform="translate(-626.45 -217.24)"/><path class="cls-4" d="M714.79,232.34s-7.13-.36-10.33,2.84-7,7.32-9.74,6.8-2.22-.33-5.43-2.16-7.25-5-8.69-5.88a7.37,7.37,0,0,0-5-.72,40,40,0,0,1-6.27.07,21.15,21.15,0,0,0-4.44.46,2.72,2.72,0,0,0-1.7,1.18l-1.31.46-.59.59-3.4,4.38-3.2,2.55-2.42,1.44-1.5.2-3.14-1.24s-3.73-.85-4.18-.92-2.75-.33-2.94-.39a6.26,6.26,0,0,1-.78-.46l-5.88-5.88s-.52-.78-5.69-2.94l-.2-14.05,31.57-.13s25.49-.33,25.75-.13H714.2l1.52.14Z" transform="translate(-626.45 -217.24)"/><path d="M641.34,245.35l-.09-.11.09.11" transform="translate(-626.45 -217.24)"/><path d="M667.21,234s.26-.45.45-.15a6.07,6.07,0,0,1,1.27,3.32c.08,1.83.26,4.52-.6,6.43,0,0-.15.26.08-.93a15.2,15.2,0,0,0,.22-4.22,8.13,8.13,0,0,0-.75-3.14c-.37-.71-.75-1-.67-1.31" transform="translate(-626.45 -217.24)"/><path d="M673.34,240.86s-.11-.26.34-.26,2-.11,2,.41-.15,1.68-.15,1.79-.19,0-.22-.71-.26-.82-.63-.82-.41.11-.45.41-.11,1.27-.15.75,0-1.08-.22-1.23-.52-.07-.49-.34" transform="translate(-626.45 -217.24)"/><path class="cls-4" d="M696.44,272.26c0,14-11,25.35-24.65,25.35s-24.65-11.35-24.65-25.35,11-25.34,24.65-25.34,24.65,11.35,24.65,25.34" transform="translate(-626.45 -217.24)"/><path d="M672.86,247.41a4.81,4.81,0,0,1,.27.9c.08.46.17.74.84.8a.94.94,0,0,1,1,.82c.08.44.15.8-.4.61s-.71.42-1.22.76a2,2,0,0,1-1.16.51c-.5,0-.71.76-.15,1.32s1,.48,2.1.32a2.3,2.3,0,0,0,1.85-1.6c.11-.53.08-.82.76-.65s1.05.06,1.32.55.23.8.76,1.09.5.76,1.14.32.46-.25.78-.06,1.81,1.37,1.58,2-.5,1.83.67,1.7a1.67,1.67,0,0,1,1.85,1.28c.11.5.11.78.48.57s1.09-.59,1.3.32.71,1.28,1,1.32.4.15.06.38c0,0-.49.41-.46.84a1.22,1.22,0,0,0,.81,1.24c.78.4.49.43.49.63s.11,1,.63,1,.66,0,.69.43a1.3,1.3,0,0,0,.89,1.07c.58.23.72.52.49.86a.57.57,0,0,0,.17.86c.32.23.63.69.35,1a2.46,2.46,0,0,0-.46,1.67c.06.63-.11.37-.4.86s-.84,1-.6,1.81a1.91,1.91,0,0,0,.6,1.18c.4.46.62.83.22,1.23s-.92.84-.67,1.55a5.9,5.9,0,0,0,1.13,1.59c.4.55.33,1.38-.34,1s-1-.65-2,.59-2,1.74-2,2.3.23.84-.67,1.43-1.62.78-1.57,2.63-.09,3.31-.66,3.72-1.53.17-2.33,1-1.47,1.18-2.07.81-2.16-.86-2.79.32-.81,1.87-2.36,1.38-2.1-.92-2.76-.63-.49.35-1,0-.63-.49-2-.29-1.67.35-2.1.84-.89,1.3-1.47.58-.35-1.44-.52-2a2,2,0,0,0-1.61-1.53c-1.12-.26-1.24-.55-1.53-1.24s-.52-1.73-1.58-1.41-1.81.34-2.36-.23a1.67,1.67,0,0,0-1.78-.55c-.69.17-.63,0-.6-.46a.63.63,0,0,0-.46-.75.81.81,0,0,1-.32-1.24c.38-.69.81-1.41.58-2a7.17,7.17,0,0,0-.89-1.76,2.41,2.41,0,0,1-.43-2.27c.29-.69.49-1.53-.29-2a1.12,1.12,0,0,1-.46-1.81,3.27,3.27,0,0,0,.92-2.45c-.14-1-.69-1.79.06-2.71s.81-1.32.32-2,0-.63.32-.89a2,2,0,0,0,.75-1.87c-.23-.81-.49-.81.09-1.3s1.15-.86,1.12-1.33-1-1.15-.4-1.58,1,.06,1.38-.52.09-.69.66-.61.55-.09,1.07-.09.92.06,1.32-.49-.55-.86,0-1.67.55-1.21,1.38-1.38,1.35-.29,1.5-1,.14-.89.75-1,1.09-.66,1-.89-.29-1,.26-.75.29.2,1,.83,1.53,1.44,2,.29.43-1.47,1-1.41,1.38-.17,1.15-1.35-.17-1.07.43-1.44a1.69,1.69,0,0,0,.81-1.58c-.09-.49-.26-.23.09-.72s.35-.46,0-1-1.58-1.53-2.1-.92.14.81-1,1-1,.26-1.27.81-.46.69-1.15,0-1.9-.75-2.16.11-.32,1.18-.81.89-.92-.14-1.64.29-.66.09-1.27.11-.37.26-1,.72a2.79,2.79,0,0,1-2,.63c-.72-.09-1.12.69-1.67,1.21a3.18,3.18,0,0,1-1.35.86c-.6.23-1.84,1.41-1.67,1.79s.58.92-.32,1.32-2.13.83-2.48,1.67a5,5,0,0,1-1,1.61A1.92,1.92,0,0,0,649,260c.23.58,0,.49-.35.61s-1.41.75-1.15,1.38.32,1.33-.35,1.67-1.58,1.21-1.35,2,.83,1.53.23,2-1.5,1.21-.89,2.25.34,1.21,0,1.73-.14,1,.06,2.07-.14,1-.46,1.58a1.89,1.89,0,0,0,.14,2.13c.58.92,1,1.38,1,2.07s-.52,1.47,0,2.48,1.27,1.38.75,1.84a1.17,1.17,0,0,0,0,1.9c.78.69.89.89,1,1.24a.91.91,0,0,0,.89.75c.58.06.89-.11,1,.55s.26.6.75,1.27a1.45,1.45,0,0,1,.29,1.61,1.39,1.39,0,0,0,1,2c1.41.46,1.67.75,1.81,1.38s.46,1.93,1.61,1.76,1,.2,1.07.6a1.48,1.48,0,0,0,2.25,1.12s.35-.26.29.35.32,1,1.09,1.12,2.39-.14,1.53.63-1.38,1.84-.4,2.45,1.56,1.41,2.82.66,2.19-1.53,2.16-.52-.26,1.32.87,1.15a3.35,3.35,0,0,0,2.3-1.18c1-.86.75-1.61,2-.86S672,303.15,674,303s3.46.52,2.42-.52-2.22-2.16-.17-1.27,3.23,1.64,4.32,1.33,1.53-1.27,2.25-1.61.61-.23-1.32-.63-3.8-.69-3.54-1.21.66-.26,1.35-.29a11.2,11.2,0,0,1,1.81-.2,14.61,14.61,0,0,0,3.14-.29c.52-.15.52-.49.84-1.07s.43-.46,1.07-.46a1.7,1.7,0,0,0,1.79-1.15c.43-1,.43-1.3,1.21-1.21s2.59,0,3.14-.6.89-1.41-.11-2-1.76-.58-.75-1a5.13,5.13,0,0,0,2.51-1.76c.46-.78.32-1.73.92-2.39a21.92,21.92,0,0,1,2.59-2.3,1.67,1.67,0,0,0,.83-1.87c-.26-.6-.89-1,0-1.81s1.76-1.09,1.3-2.25-.89-1.3-.75-2.22.26-1-.17-1.44-.66-.32.14-.92,1.3-1.33,1.07-1.9-.81-.92-.81-1.7.46-2.13-.17-2.76-1-.81-.92-1.84a2.69,2.69,0,0,0-.32-2,2.74,2.74,0,0,1-.55-1.82c.06-.78.14-.95-.46-1.5s-.78-.86-.55-2,.23-2-.69-2.45-1.27-.89-1.35-1.56-.23-2.68-3.74-2.74c0,0-1.61.06-1.61-.29s.11-2.22-1.12-2.13-1.56-.46-2.48-.4-.32-.46-1.06-.32-.06,0-.52-.55a1.55,1.55,0,0,0-1.76-.46c-.89.17-1-.14-1.18-.78s-.4-.81-1.38-.92a2.37,2.37,0,0,1-1.67-.66c-.52-.43-.69-.37-1.44,0s-.14.23-1.12.35-3.15-.48-2.09,1.92" transform="translate(-626.45 -217.24)"/><path class="cls-5" d="M656.58,247.91h0s0,0,0,0" transform="translate(-626.45 -217.24)"/><path class="cls-5" d="M665.42,251.69s-1.83-.27-1.52-1.24a5.19,5.19,0,0,1,1.09-2c.47-.54.62-.93,1.44-.62s1,.43,1.67-.23.74-.55,1.28-.12.43.12,1.13.12.78.85.15,1.36a1.33,1.33,0,0,0-.62,1.56c.16.7,0,1-.39,1s-1.09-.39-1.24.5-.08,1.52-.74,1.05a10,10,0,0,0-2.26-1.32" transform="translate(-626.45 -217.24)"/><path class="cls-5" d="M663,250.93s-.22-.74.11-1.12.35-.79.16-.94a1,1,0,0,0-1.07,0,1.38,1.38,0,0,1-1.07.16c-.27,0-.31,0-.83.35s-1.65,1-2.23,1a1.08,1.08,0,0,0-1.18.58c-.35.47-.54,1-1.15,1.24s-2.61,1.32-1.89,1.45,1.75.33,2.08.9.42.93.94.93a1.81,1.81,0,0,0,1.29-.72c.36-.39.91-.27,1.54-.25s.82,0,1.12-.69.3-1.05,1-1.59a1.82,1.82,0,0,1,1.35-.54c.41,0,.08-.11-.14-.71" transform="translate(-626.45 -217.24)"/><path class="cls-5" d="M657,257.08s-.41-.44.24-.72,1-.36,1.07-.79.35-.43,1.05-.38a2.14,2.14,0,0,0,1.84-.61c.31-.47.28-1.6,1.26-2s2.22-.33,2.36.19-.22.74-.83.8a1.07,1.07,0,0,0-.93,1.16c.09.46-.2.71-.76.61a1.22,1.22,0,0,0-1.26.5c-.19.35-.85,1.2-1.67,1.05a1.64,1.64,0,0,0-1.42.27.74.74,0,0,1-1-.14" transform="translate(-626.45 -217.24)"/><path class="cls-5" d="M655,258.63s1.4-1.07.88-2.32-.79-1.92-1.25-2a1.78,1.78,0,0,0-1.15.4,8.22,8.22,0,0,1-1.67,1.36c-.79.35-.85.61-1,1.11a3,3,0,0,1-.85,1.56c-.6.61-.4,1.23,0,1.92s.59,1.73,1.13.69.92-1.82,2.23-2a2.3,2.3,0,0,0,1.67-.75" transform="translate(-626.45 -217.24)"/><path class="cls-5" d="M656.66,260.06a1.31,1.31,0,0,0-.26-.65c-.26-.39-.29-.69,0-.75s1.14-.23.88.29-.33.26,0,.52-.1,1.21-.55.59" transform="translate(-626.45 -217.24)"/><path class="cls-5" d="M658.45,259s-.52-.13,0-.78.69-.42.69,0-.26,1.6-.72.81" transform="translate(-626.45 -217.24)"/><path class="cls-5" d="M659.79,258.79s0-.46.19-.33.39.78-.19.33" transform="translate(-626.45 -217.24)"/><path class="cls-5" d="M655.39,260.94a.44.44,0,0,0,.33-.46c0-.39-.1-1.08-.46-.91a6.88,6.88,0,0,1-1.73.52,1.24,1.24,0,0,0-1.11.72,4.56,4.56,0,0,1-1,1.5,1.52,1.52,0,0,0-.46,1.53c.1.59.13.52.72.72s.88.07,1.3.78.72,1.3,1.24.88.75-.68.46-1.4-.62-.78.26-1.47,1.21-.85.75-1.34-.81-.81-.33-1.08" transform="translate(-626.45 -217.24)"/><path class="cls-5" d="M647.63,268.63s-.07-1.24.78-1.56,2.05-.36,1.92-1.37a4,4,0,0,1,0-2.05c.23-.59.2-.91-.26-.91s-.16-.07-.2-.49-.26-.52-.65-.78-.94-.13-.91.42.13,1.37-.52,1.83-1.5,1.47-1.24,2.25a2.06,2.06,0,0,1-.36,2.48c-.88.78-.36,2,.39,3s.52,1.37,1.17.26,1.34-1.6.75-2-.85-.75-.85-1.08" transform="translate(-626.45 -217.24)"/><path class="cls-5" d="M648.35,274.82a2.7,2.7,0,0,1-.39-2.08c.36-.94.55-.91,1.14-1.76s.39-1.21-.16-1.89-.88-1.17.23-1.66,1.76-.82,1.83-1.43.1-1.14.88-.52,1,1,1,1.24-.06.26.29.65,1,1.37.52,1.79A3.8,3.8,0,0,0,653,272c.23.78.26,2.09-.13,2.25s-.52.29-1.37-.75-1.5-.13-1.76.52-.52,2.25-1.37.81" transform="translate(-626.45 -217.24)"/><path class="cls-5" d="M645.81,274.43c0-.1-.1-3.49.78-1.63a14.92,14.92,0,0,0,1.73,2.87c.42.65.49.72.06,1.14a2.11,2.11,0,0,0-.78,1.76,3.59,3.59,0,0,0,.49,1.73c.33.65.78,2.31-.62,2.31s-1.6-1.83-1.3-2.48a4,4,0,0,0-.59-2.87,1.72,1.72,0,0,1,0-1.92,1.89,1.89,0,0,0,.26-.91" transform="translate(-626.45 -217.24)"/><path class="cls-5" d="M649.13,280.26s-1-.78-1-1.43,0-.72.55-1.27.78-.88.75-1.21A3,3,0,0,1,650,275a2.69,2.69,0,0,1,1-1c.26-.06.46.39.72.82s.59.59.52,1-.13.82.33,1,1.27,0,.91.91a2.53,2.53,0,0,0-.07,2.7c.65,1.43,1.43,2.15.91,3.39s-.94,2.09-1.53,2-1.5-1.14-1.37-1.56a1.69,1.69,0,0,1,.52-1,1.41,1.41,0,0,0,.39-1.27c-.1-.39-.39,0-.42.39a.71.71,0,0,1-.52.65c-.26.1-.19-.16-.19-.88a3.72,3.72,0,0,0-.19-1.66c-.23-.49-.26-.59.06-1s.82-1.08.78-1.37-.39,0-.68.39-.39.26-.33-.36a7.13,7.13,0,0,1,.13-1.69c.2-.55.26-1.14,0-.78a2.31,2.31,0,0,0-.49,1.66,4,4,0,0,1-.06,1.5,1.32,1.32,0,0,0,0,1.17,3.43,3.43,0,0,1,.33,1.53c0,.46-.39,1.21,0,1.7s.36.65.16,1-.23,1-.59.85-.42-.91-.78-1.14-1.07-.91-.59-1.66,1.11-1.17.26-2.15" transform="translate(-626.45 -217.24)"/><path class="cls-5" d="M647.14,285.31s-.72-.39-.2-.94,1.37-.59,1.37-.06-.49.59-.59.94-.33.46-.59.06" transform="translate(-626.45 -217.24)"/><path class="cls-5" d="M648.28,286.81s-.52-.23-.07-1,.72-.81.94-.55.85.55.42,1.08-.81,1.34-1.3.49" transform="translate(-626.45 -217.24)"/><path class="cls-5" d="M650.14,288.57a1.89,1.89,0,0,1,0-1.56c.39-.78,1.11-1.53,1.37-1.11s.91,1.27,1.53,1.2,1.24-.78,1.57-.52.1.62,0,1a2.05,2.05,0,0,0,.1,2c.56.88,1,1,1,2.12s-.36,1.53.23,1.79,1.47-.1,1.76.43.39,1.47-1,1.6-1.82.26-2.15,0-.23-.65-.46-1.17a3.22,3.22,0,0,0-1.86-1.53c-.88-.26-1.34-.42-1-1.73s-1-2.51-1-2.51" transform="translate(-626.45 -217.24)"/><path class="cls-5" d="M655,289.26s0-1.4,1-1.34.81.46,1.79.72,1.66.16,2.38.33.59.29.85.78a2.28,2.28,0,0,0,1.47,1.5c1.14.46,1.69.72,1.79,1.5s-.2.68.26,1.27,1.3.88,1.5,1.3.55,1.73.07,1.27a3.68,3.68,0,0,0-1.56-.75c-.72-.26-.16-.65-.65-.91a2.73,2.73,0,0,1-1.53-1.27c-.55-.94-.91-.78-1.47-1.47s-.42-.91-.55-1.63-.78-1-.65-.68.36,1.14.13,1.24-.26.19-.62-.42-.36-.19-.88-.52a1.8,1.8,0,0,1-.78-.88c-.1-.23-.59-.36-.42-.13a.5.5,0,0,1,.1.55c-.07.26-.33.1.33.42s.85.33,1.14.85,0,.55,1,1.24a7.09,7.09,0,0,1,1.83,1.4c.65.75,1.14,1,1.3,1.34s-.16.19-.39.39-.85,1.14-1.76.81-1.86-.46-2-1.24-.13-1,.07-1.11,0-.16-.55-.56a2.81,2.81,0,0,0-1.47-.46c-.42-.06-.55-.19-.52-.85s-.07-1.73-.62-2.05-.65-.33-.62-.65" transform="translate(-626.45 -217.24)"/><path class="cls-5" d="M657,297.08s-.55-.65-.07-.94.59-.1,1-.36.49-.23.72,0,.75.72.1.91-.46.39-.65.65-.65.39-1.11-.26" transform="translate(-626.45 -217.24)"/><path class="cls-5" d="M659.49,298.35s-.59-1,.33-1.37,1.66-.16,2.22-.62.88-.65,1.89-.16,1.5.49,1.66.85.26.42.91.46,1.6.75,1.34,1a2,2,0,0,1-1.6.46c-.88,0-1.66-.06-1.89.19s-.72.42-1.57.29-3.06-.49-3.29-1.14" transform="translate(-626.45 -217.24)"/><path class="cls-5" d="M661.45,302.07a.6.6,0,0,1,.88-.16c.62.33.88.65.68.78s-2-.33-1.56-.62" transform="translate(-626.45 -217.24)"/><path class="cls-5" d="M664.22,301.32s-.52-.65.29-.55a2.24,2.24,0,0,0,1.83-.39c.81-.46,1.43-.59,1.3-.39a3,3,0,0,1-1.63.75c-.88.16-1.21.75-1.79.59" transform="translate(-626.45 -217.24)"/><path class="cls-5" d="M666.47,302.13s.1-1,.94-.88.72.26.62.78-.13.78-.81.85-.78,0-.75-.62" transform="translate(-626.45 -217.24)"/><path class="cls-5" d="M667.81,297.13a4.67,4.67,0,0,1,.26-2c.4-.63.23-.69-.06-1.07s-1,.06-1,.38a7,7,0,0,0,0,2.33c.2.46.49.95.84.37" transform="translate(-626.45 -217.24)"/><path class="cls-5" d="M668.59,297.1s0-2.22.52-2.91,1-.63,1.24-.35,0,.66-.14,1a6.93,6.93,0,0,0-.37,2.13c.06.63-1.07,1.3-1.24.14" transform="translate(-626.45 -217.24)"/><path class="cls-5" d="M671.24,295.57c0-.12.14-1.47,1.12-1.58s1.07.78,1.1,1.18.14,1.24-.55,1.24-1.76.4-1.67-.84" transform="translate(-626.45 -217.24)"/><path class="cls-5" d="M674.18,296s-.12-1.73.55-1.64.72.58.72,1.27-.23,1.73-.61,1.81-.66-.32-.66-1.44" transform="translate(-626.45 -217.24)"/><path class="cls-5" d="M673.26,301.74a.5.5,0,0,1,.26-.55c.35-.17.38-.32-.35-.29s-2.1-.11-2.31-1.15-.23-1.38,0-1.67-.06-.26-.72.35-.52,2,.89,2.88,2.65.92,2.22.43" transform="translate(-626.45 -217.24)"/><path class="cls-5" d="M671.84,299.89c-.05.15-.72-.37,0-1s.83-.92.78-1.38.55,0,.86.43.95,1,.09,1.55-1.64.14-1.73.38" transform="translate(-626.45 -217.24)"/><path class="cls-5" d="M680.37,301.94s-.23-.34.46-.49,1.21-.06.6.29-1,.63-1.07.2" transform="translate(-626.45 -217.24)"/><path class="cls-5" d="M676.28,298.38s-1.11-.46.35-.46,1.34.15,2.15-.08.73-.23,2,0a11.26,11.26,0,0,0,2,.27s.46.27-.61.15a10.29,10.29,0,0,0-2.92-.11c-1.31.15-2.23.46-3,.19" transform="translate(-626.45 -217.24)"/><path class="cls-5" d="M676.47,295.27s-.12.15.42-.46.23-.27.58-1.08.27-1.31,1.35-1.19,1.15.69,2.23.08,1.27-1.58,2.19-1.61.85.42,1.46.69,1.38.65,1.34,1a.85.85,0,0,0,.27.81c.23.23.65.77-.31,1.27s-2.27-.23-3,.73-1.77.88-1.69,1.42,0,.38-.85.08-1.31-.69-2.23-.27-2.19.38-1.69-.23.73-.12,1.31-.5.54-.42,1.34-.19,1-.5.54-.65-1.34.08-.92-.31.42-.5.92-.08.85.19,1.19,0-1.3-.58.19-.65,1.38-.19,1.73-.42.81-1,1.46-.84.92-.11.08-.38a1.86,1.86,0,0,0-1.88.5c-.46.38-.54.08-1,.38s-.81,0-1.34.19a3.25,3.25,0,0,1-1.11.31c-.77.08-1.46.23-1.35.73s-1.69,1.19-1.19.61" transform="translate(-626.45 -217.24)"/><path class="cls-5" d="M683.19,297.84s-1.11-.77-.31-1.42,1-.77,1.46-.62.5.42,1.42,0,1.65-1.38,1.42-2-.69-1.19-.15-1.58.81-.46,1-.19,0,.5,0,.92.81,1,.92.15.08-.88.69-.92,1.19-.39,1.65,0,.73.42.77.69-.19.88-1.27.88,0,.31-1.27.27-1.84.08-2.27.88-.58,1.23-1.73,1.27-1,.69-1.27,1.19-.38,1.08-1.07.5" transform="translate(-626.45 -217.24)"/><path class="cls-5" d="M686.26,292.16c0,.14.69-.23.31-1s-.92-1.08,0-1.5.77-.15.39-1.23-.39-1.27.58-1.84,1.11-.42.92-1.46-.38-2.53.81-2.88,1.92-1.23,1.65-1.84-.42-.54-1,.12-1.57,1.15-1.92,2.19-.5,1.38-1.19,1.77a2.44,2.44,0,0,0-1.15,2.07c-.08,1-.11,3.19-.5,3.46s-.77.58-.11.88,1.27.85,1.23,1.27" transform="translate(-626.45 -217.24)"/><path class="cls-5" d="M687.49,291.23a1,1,0,0,1,0-1.31c.58-.61.69-.77.38-1.42s-.73-1.19.27-1.65,1.34-1.15,1-1.92a1.68,1.68,0,0,1,.85-2.3c1-.31,1.84-.92,1.81-1.88s.54-.81.73-.5-.08.46.58,1,0,.5.46,1.27,1.08,1.46.46,2.19-1.27,1-1,2.26.46,1.5-.19,2-1.15,1.23-2.07,1.11-.65.35-1.07.81a1.63,1.63,0,0,1-2.23.27" transform="translate(-626.45 -217.24)"/><path class="cls-5" d="M693.71,286.66s-.12-.58.73-1.61.61-1.08.46-1.69-.35-.73.35-.81,1.3-.38,1.23-1.08.11-.65.46-1.19a1.2,1.2,0,0,0-.19-1.46c-.27-.15-1.34.08-.46-.84s0-.73.81-1.84,1.11,0,1.15.38a2.22,2.22,0,0,0,.31,1.3c.35.54.61,1.31,0,1.84S696.9,281,697,282s.58,1.54-.54,2.42-2.46,2.61-2.76,2.23" transform="translate(-626.45 -217.24)"/><path class="cls-5" d="M694.1,282s-.38-1.11.31-.88,1.23.65.88.81-.5-.42-1.19.08" transform="translate(-626.45 -217.24)"/><path class="cls-5" d="M695.25,280.79s-1.35-1.57-.15-1.57,1.46.31,1,.77.08,1.42-.88.81" transform="translate(-626.45 -217.24)"/><path class="cls-5" d="M692.49,279.6s1,1,1.23.31-.15-1,.92-1.92,2.11-2.15,1.54-2.92-.54-.81-.27-1.84.27-1.57-.5-2-.69-1-1-1.5S693.1,268,692.6,269a3.69,3.69,0,0,0-.46,2,1.18,1.18,0,0,1-.42,1.15c-.46.5-.58.54-.35,1.11s.85,1.46.38,2.15-1.07,1.31-.31,2,.42,1.27,1,2.11" transform="translate(-626.45 -217.24)"/><path class="cls-5" d="M696.71,274.84a2.25,2.25,0,0,1,0-1.92c.42-1.08.19-1.31-.54-2s-1.11-1.23-.73-2.23,1-1.46,1-2.61.08-2.3.65-2a.82.82,0,0,1,.5,1,2.6,2.6,0,0,0,.19,1.88c.46.69,1,1.15.88,1.73s-1,1.46-.58,2.07,1,.85,1.07,1.11a1.53,1.53,0,0,1-.65,1.38c-.65.54-1.46,2.26-1.73,1.54" transform="translate(-626.45 -217.24)"/><path class="cls-5" d="M693.71,267.62s-1.81.19-2-.69a5.09,5.09,0,0,0-.46-1.5c-.35-1-.77-.88-.5-1.88s.42-.88.12-1.54-.73-.61-.12-1.19.58-.61,1.11-.31a1.82,1.82,0,0,0,1,.38c.73.15.81.35,1.08.92s0,.42.58,1a2.44,2.44,0,0,1,1,1.84,4.24,4.24,0,0,1-.31,2.07,7.62,7.62,0,0,0-.38,1.11c-.08.15-.54-.27-1.11-.27" transform="translate(-626.45 -217.24)"/><path class="cls-5" d="M695.79,263a1.63,1.63,0,0,1-1.23-1.46c-.12-1.23-.39-1.42-1.65-1.54s-.65-.42-1.15-.77-.31,0-1.07.08-1.19-.5-1.23-1.31-.15-.5-.73-1-.31-.38,0-1.27-.27-1-.38-1.88-.12-1.46,1.5-1.38,2.53.27,3,1.19a13,13,0,0,0,1.11,2.19c.61.88,1.19.92,1.11,1.92s-.27,1.19.23,2a15,15,0,0,1,1.19,2.34c.15.5.11,1-.73.88" transform="translate(-626.45 -217.24)"/><path class="cls-5" d="M689.8,262.24s.08-.84.31-.35.31.61.08,1.07-.65.85-.54.35-.81.27.15-1.08" transform="translate(-626.45 -217.24)"/><path class="cls-5" d="M688.64,262.09a.53.53,0,0,0,.46-.61c-.08-.54-1-.23-.46.61" transform="translate(-626.45 -217.24)"/><path class="cls-5" d="M688.88,260.21s1.5.19.65-.42-.54-.61-.61-1.11.08-.35-.5-.5a1.36,1.36,0,0,1-.54-2.07c.65-.88.54-1.11.08-1.46a1.28,1.28,0,0,1-.38-1.38c.11-.46.34-.35-.19-.85a2.19,2.19,0,0,0-2-.88c-1,.19-1.15.54-2,.46s-2.34.46-1.5.88,1.34.69,1.38,1.46-.73,1.54.5,1.54,1.07,1,1.42,1.65.12.27,1,.27,1,.27,1.46,1,.19,1,1.27,1.46" transform="translate(-626.45 -217.24)"/><path class="cls-5" d="M686.34,250.91a1.64,1.64,0,0,0-1.19-.15c-.73.15-.58-.11-.69-.65s-.19-.73.54-.27a2.07,2.07,0,0,0,1.65.46c.92,0,1.23-.19,1.34.5s0,1.84-.61,1-1-.92-1-.92" transform="translate(-626.45 -217.24)"/><path class="cls-5" d="M682.16,251.64a2.76,2.76,0,0,0,1.27-.23c.42-.27.58.08.35-.54a10.25,10.25,0,0,0-.5-1.15c-.27-.58-.19-1-1.11-1.27s-1.46-.12-1.84-.85-.08-.69-1.15-.81-1.69-.08-1.15.35,1,.23,1,.81-.11.88.61,1.27,0,.54.81.88.88.35,1.31.54.15.46-.54.08a6.14,6.14,0,0,1-1.69-1c-.35-.42-.19-.42-.85-.54a3.09,3.09,0,0,1-1.57-.61c-.58-.42-.46-.5-1.23-.46s-1.23-.31-.5-.31,1.31-.19,1.77.23,1.31.81,1.46.61.38-.5-.11-.81-1-.35-1-.92.08-.84-.61-1a1.07,1.07,0,0,0-1.19.42c-.12.15-.31.5-1.23.38s-1.38-.12-.92.61.42.69,1.23,1a1.82,1.82,0,0,1,1.27,1.27c.19.61-.19.81.85,1.07s1.5.31,1.81.92.77,1.46,1,1a2,2,0,0,1,2.54-1" transform="translate(-626.45 -217.24)"/><path class="cls-5" d="M673.82,251.87s.15-.77.73-.61a.72.72,0,0,1,.38,1.19c-.38.31-.38,0-.35-.27s-1.08.15-.77-.31" transform="translate(-626.45 -217.24)"/><path class="cls-5" d="M672.67,252.91s.08-.61.5-.42-.31,1-.5.42" transform="translate(-626.45 -217.24)"/><path class="cls-5" d="M671.08,246.44s-.39-.61-.19-.62a.44.44,0,0,1,.47.22c.12.21,0,.71-.28.4" transform="translate(-626.45 -217.24)"/><path class="cls-5" d="M651.08,266.51s-.17,0-.17.66-.35.58-.41,1.17.46-.11.58.88.53,1.52.47.17-.05-2.79-.32-2.88" transform="translate(-626.45 -217.24)"/><path class="cls-5" d="M679.76,301.9a.23.23,0,0,0,.14-.14c.16-.47.28-.87.79-.91,0,0-.07,0-.27-.09-.37-.11-1.15-.32-2.51-.75s-.69-.23-2,0,0,.57.06.61c1.18.37,1.27.72,2.91,1.18a2.73,2.73,0,0,0,.89.13" transform="translate(-626.45 -217.24)"/><path class="cls-6" d="M651.54,266.54a2.3,2.3,0,0,1-.83,1.24c-.77.71-.71,1.42-.29,2.48s.12.89-.24,1.54,1.12.06,1.06-.89-.83-1-.47-1.89,1-1.59.77-2.48" transform="translate(-626.45 -217.24)"/><path class="cls-6" d="M656.89,253.66s-.31.23,0,.31a1.79,1.79,0,0,0,1.48-.77c.48-.6.88-1,1.23-1s.54-.19.94-.61.59-.65,1-.75.77-.46.25-.52a1.76,1.76,0,0,0-1.4.81,1.09,1.09,0,0,1-.88.62,1.38,1.38,0,0,0-1,.52c-.29.33,0,.36-.65.79s-.88.42-1,.65" transform="translate(-626.45 -217.24)"/><path class="cls-6" d="M651.13,259.65s-.37-.38-.12-.61.58-.15,1.06-.5.52-.67.92-.9.83-.38.81-.88a.54.54,0,0,1,.44-.63c.17-.06,0,.11-.08.46s0,.81-.5,1.15a1.73,1.73,0,0,0-.81.94c-.13.38-.44.33-.67.36s-.58.1-.67.27-.33.46-.38.35" transform="translate(-626.45 -217.24)"/><path class="cls-6" d="M654.18,261.78s.88-.94.55-.85a2.9,2.9,0,0,1-.88.23c-.46,0-.78.46-.55.65s.13.65-.23.91-1.11.91-.85,1.24.65.62.55,0,.36-.75.75-1,.49-.49.39-.72,0-.19.26-.49" transform="translate(-626.45 -217.24)"/><path class="cls-6" d="M647.3,267.16a1.27,1.27,0,0,1,.39-1.21c.59-.65.91-.72.85-1.43a1.13,1.13,0,0,1,.49-1.24c.42-.39.42-.06.29.26s-.26.68-.06.85,0,.59-.42,1.11a3.05,3.05,0,0,0-1,1.56c-.13.72-.42.39-.55.1" transform="translate(-626.45 -217.24)"/><path class="cls-6" d="M646.42,275.37s.06-1.4.33-1a1.26,1.26,0,0,1,.26,1.08c-.1.39-.33,1-.1,1.34s.65,1.17.29,1.24-.46,0-.55-.46-.55-.85-.36-1.27.13-.42.13-.95" transform="translate(-626.45 -217.24)"/><path class="cls-6" d="M654.18,291.87s-1.34-.88-1.53-1.47-.42-.68-.81-1.27a2.14,2.14,0,0,1-.36-1.73c.16-.36.62.1.65.39s-.19.65.19,1,.69.42.81,1,.07.2.52.81,1,1.73.52,1.3" transform="translate(-626.45 -217.24)"/><path class="cls-6" d="M689,289.7a1.92,1.92,0,0,1,.58-1.77c.85-1,1.15-1.08,1.23-2.15s-.08-.65.42-1.34a2.12,2.12,0,0,0,.58-1.5c0-.54.77-.77.46-.27s-.31.27-.19,1a1.41,1.41,0,0,1-.31,1.42,1.36,1.36,0,0,0-.19,1.15c0,.23-.31,0-.61.73s-.08.58-.58,1.19a6.42,6.42,0,0,0-.81,1.15c-.19.34-.54,1.38-.58.42" transform="translate(-626.45 -217.24)"/><path class="cls-6" d="M693.22,277.33s-1,.08-.19-1.15,1-1.23.46-2.34-.42-.65-.23-1.84.46-2.15.62-.62,0,1.58.58,1.31.77,0,.23.5-.77,1-.54,1.46-.12.81-.46,1.27-1,.73-.46,1.42" transform="translate(-626.45 -217.24)"/><path class="cls-6" d="M697.25,270.69a1.74,1.74,0,0,1-.85-1.88,10.75,10.75,0,0,1,.42-2.46c.15-.58.46,0,.27.65a2.56,2.56,0,0,0-.11,2.07c.38.85.77,1.88.27,1.61" transform="translate(-626.45 -217.24)"/><path class="cls-6" d="M693.64,266.54c.1-.06.31-.61-.12-1.57s.15-.69-.46-1.38-.77-.54-.81-1.23-.42-1.19-.31-.35a2.23,2.23,0,0,0,.65,1.61c.58.73.15.5.5,1.23s.19,1.88.54,1.69" transform="translate(-626.45 -217.24)"/><path class="cls-6" d="M693.68,258.78a8.31,8.31,0,0,1-1.08-1.23c-.27-.46-.27-.73-1.34-1s-.19-.46,0-.54.35-.54-.58-1.15-1.42-1.46.08-.61,1.54,1.19,1.61,1.65.42-.31.81.61,1.38,3,.5,2.23" transform="translate(-626.45 -217.24)"/><path class="cls-6" d="M683.77,253.75s-1.15-.69-.12-.5,1.77-.08,2.11.42.73-.38,0-1-.69-.88-.08-.65,1,.42.92,1.31,0,1,.27,1.42,0,.5-.69.15-1.42-1.19-2.46-1.19" transform="translate(-626.45 -217.24)"/><path class="cls-6" d="M665.94,250.17a.87.87,0,0,1,.8-.82,1.69,1.69,0,0,0,1.38-.57c.53-.45.49-.34,1-.39s.79-.06.73.19,0,.33-.56.36-.43.46-.89.48-.53.07-.68.28a.66.66,0,0,1-.67.28c-.33,0-1.22.56-1.08.18" transform="translate(-626.45 -217.24)"/><path class="cls-6" d="M628.11,240.51a8,8,0,0,1,6.42,1.9c3.16,2.63,6,7,8.22,9.43s3.31,4.57,3,5.64c0,0,.1-1.7-2-3.84s-6.27-8-9.24-10.16a8.81,8.81,0,0,0-6.27-1.51Z" transform="translate(-626.45 -217.24)"/><path class="cls-6" d="M628.89,244a8.21,8.21,0,0,1,6.85,3.36,96.07,96.07,0,0,0,7.68,9.82s-.1.29-2.33-2.09-4.33-7-8.07-8.6-4.76-1-4.76-1Z" transform="translate(-626.45 -217.24)"/><path class="cls-6" d="M639.29,256.32s-3.89-6.46-6.12-7.53-.92-.19.29.78a34,34,0,0,1,5.83,6.76" transform="translate(-626.45 -217.24)"/><path d="M685.07,245c-.22-1.2-1.79-2.35-2.69-3A4.33,4.33,0,0,0,680,241a2.49,2.49,0,0,1-1.35-.26,4.75,4.75,0,0,0-2.17-.07c-.67.07-.3.6-.3.6.49.19.49.93.41,1.38s.08.3.08.3c.58-.69.25-1.38.54-1.59s.58-.06.58.12a.28.28,0,0,0,.23.27c-.22-.56.67-.49,1.12-.19a1.31,1.31,0,0,1,.41,1.38c-.15.3-.82.9,0,.3s.3-1.16.11-1.5.45-.34.93.15.71.93.49,1.31a1.81,1.81,0,0,0-.16.32c.3-.23.72-.65.57-1a.62.62,0,0,1-.11-.33c-.07-.29,0-.41.25-.22a1.62,1.62,0,0,1,.79,1.11c0,.31-.34.81-.29.89h0s.79-.64.55-1.32a5.41,5.41,0,0,1,1.63,1.38,5.17,5.17,0,0,1,.86,1.31c0-.08,0-.2-.06-.35" transform="translate(-626.45 -217.24)"/><path d="M672.58,240.75s-.06-.28.61-.08l0-.06a1.38,1.38,0,0,0-.78-.39l-.1,0-.35-.07c-.36-.06-.6-.1-.79-.14l-.2,0c-.36,0-.63-.44-.81-.83a4.8,4.8,0,0,0-.56-.59,12.33,12.33,0,0,1,1.11,3.36,1.85,1.85,0,0,0,.15.85,4.82,4.82,0,0,0-.06-1.8.62.62,0,0,1,0-.18c0-.34.46-.27.46-.27h0a2.14,2.14,0,0,1,.47.06c.24,0,.33.15.51.44a2.22,2.22,0,0,1,.24.67,1.3,1.3,0,0,0,.16-.93" transform="translate(-626.45 -217.24)"/><path d="M669.2,233.31s3.74-.14,5.71-.41,3.88-.78,6.9,1.83,8.54,6.17,13.56,7.44c-.5,0-4.16-.09-6.81-1.87s-6.12-5.71-9.36-6.44-5.75.09-10-.55" transform="translate(-626.45 -217.24)"/><path d="M669.46,234.56a33.47,33.47,0,0,0,6.63.68c3.23-.06,7.88,2.67,9.47,4.08a18.28,18.28,0,0,0-5.84-2.84c-2.66-.51-6.07-.23-10.26-1.93" transform="translate(-626.45 -217.24)"/><path d="M669.63,235.92a39.34,39.34,0,0,0,8.33,1.76c4.42.4,6.46,2.27,8.56,4.76a9.92,9.92,0,0,0-6.29-3.51c-3.91-.4-10.6-3-10.6-3" transform="translate(-626.45 -217.24)"/><path d="M714.79,232.34s-5.88-.46-9.11,1.73-9.1,10.78-17.81,13.43a34.21,34.21,0,0,0,12.39-7.43c5.19-5.19,5.93-7.43,14.52-7.72" transform="translate(-626.45 -217.24)"/><path d="M695.26,246.63a30.12,30.12,0,0,0,7.55-6.11c3.51-4,8-7.43,12.1-5.82,0,0-4.32-1.56-8.47,3.28s-6.28,5.82-11.18,8.64" transform="translate(-626.45 -217.24)"/><path d="M700.79,244.67a11.79,11.79,0,0,1,2.42-2.19c2-1.56,2.13-1.33,3.75-3.34s5.53-4.49,8.3-3.06a6.41,6.41,0,0,0-5.82,1.38c-2.59,2.36-2.82,3.17-1.15,2.48a26.07,26.07,0,0,1,6.68-1.79c-.06.29-.29,1.1-.29,1.1s-5.53-.58-13.89,5.42" transform="translate(-626.45 -217.24)"/><path d="M693,250.14s-.23-.46,1.61-1.21,4.78-1.5,7-3.57,8.18-4.9,13.2-5l.11.86s-4.49.12-7.49,1.79-6.22,3.8-9.28,5-4.72,1.44-5.19,2.19" transform="translate(-626.45 -217.24)"/><path d="M695.32,251.7s.23-1,2.07-1.44,5.07-2,8.64-4.78,8.93-2.77,8.93-2.77l.17.87s-4.15-.4-6.4,1.15-3.4,2.19-1.5,1.61a29.57,29.57,0,0,1,7.78-1.5l0,.78a28.89,28.89,0,0,0-9.6,1.87c-4.38,1.84-9.85,3.23-10.08,4.21" transform="translate(-626.45 -217.24)"/><path d="M697.39,253a16.72,16.72,0,0,0,5.65-2.3c3.06-1.9,6-4,12.22-3.63l.06,1.33s-5.59-1.44-9.57.92-5.47,4.5-8.35,3.69" transform="translate(-626.45 -217.24)"/><path d="M698.95,254.64a11.7,11.7,0,0,0,5-1.67c2.31-1.5,5.42-4.49,10-3.57a12.47,12.47,0,0,1-1.21.75,17.72,17.72,0,0,1-4.21,1.15c-2,.23-3.8,1.56-2.36,1.38a41.16,41.16,0,0,1,4.55-.75s-.17.29-1.32.69-2.94.35-4.55.75-5,1.5-6.11,1.33" transform="translate(-626.45 -217.24)"/><path d="M648.56,252.64a1.33,1.33,0,0,1,0,.15s0,0,0-.15M668,238.4a4.66,4.66,0,0,0,0-.61,3.92,3.92,0,0,0-.3-1.23,11.08,11.08,0,0,0-1.59-2.9c-2.31,0-4.55,1-6.71,4.24a15.54,15.54,0,0,1-5.86,5.55c-1.54.77-1.85,1.47-4.47-.15s-8.66-1.64-8.66-1.64a24.77,24.77,0,0,0-8.67-7.44,30.25,30.25,0,0,0-3.58-1.71V235a9.79,9.79,0,0,1,2.79.53h0c6.16,2,14.23,13.13,16.07,15.15a10.41,10.41,0,0,1,1.59,2,3.51,3.51,0,0,0-.78-1.41c-1.38-1.78-6.69-8.1-6.69-8.1-.21-.37-.47-.59-.18-.59a25.27,25.27,0,0,1,4.1.35c2.72.39,5.72,2.22,7.17,3.18a17.82,17.82,0,0,0,4.1,1.73,9.51,9.51,0,0,1,1.55.78,7.12,7.12,0,0,1-1.41-1.24c-.39-.42.71-2.08,1-2.29s.58-.47.77-.64a8.87,8.87,0,0,0-1,.57,7.27,7.27,0,0,0-1,.95c-.54.52-.41.68-.73.61s-.14-.57.07-1,.78-.71,1.2-1.09a6.38,6.38,0,0,0,.9-1.23c-.39.23-.69.77-1.23,1.08a16.33,16.33,0,0,0-1.54.93c-.54.39-.62.46-.92.31s.85-.77,1.54-1.23a7.07,7.07,0,0,0,1.23-1.08c-.69.69-1.08.62-2.7,1.51s-1.15.11-1.31-.2,1.39-.77,2.78-1.54a12.75,12.75,0,0,0,3.93-3.93,19.81,19.81,0,0,1,3-3.32l0,0c.43-.28.63-.26.78-.05s.12.54-.35.88a5,5,0,0,0-1.5,1.73,6.82,6.82,0,0,1-1.34,2.19c-1.11,1.27-1,1.81-1,1.81.12-.69.81-1,1.34-1.73s1.11-1.65,1.61-2.46,1.11-1.38,1.5-1.34.46.23,0,.81a9.67,9.67,0,0,0-1.42,2.11,6.86,6.86,0,0,1-1.46,2.34c-1.08,1.31-.61,1.46-.61,1.46,0-.42.38-.81,1-1.42a8.36,8.36,0,0,0,1.23-1.88,13.79,13.79,0,0,1,1.42-1.88c.23-.27.61-.61.69,0s-1.11,2.15-2.23,3.8-.62,1.88-.62,1.88a4.42,4.42,0,0,1,1-2c.42-.69,1.61-2,1.84-2.31s.23-.65.35-.35,0,.92-.65,1.69a8.85,8.85,0,0,0-1.61,2.88c0,.58.42,1.11.27.81a2,2,0,0,1,.08-1.31,13.87,13.87,0,0,1,1.77-2.34c.27-.35.5-.61.61-.35s-.11.81-.85,2a3.2,3.2,0,0,0-.58,2.34.09.09,0,0,0,0,.06,1.58,1.58,0,0,1,.27-1,9.34,9.34,0,0,1,.8-1.35c.65-1,.61-.38.61.27a2.39,2.39,0,0,1-.77,1.65l-.11.12-.13.15,0,0,0,.06a2.45,2.45,0,0,0-.59,1.87,2,2,0,0,1,.14-.54,2.93,2.93,0,0,1,.84-1.24,3,3,0,0,0,.73-.87c.21-.32.32.18.32.18l.08.24a.79.79,0,0,1,.07.2l.25.72h0c.23-.08.08-.54-.27-2.19s-.46-3.38-.58-4.19a10.22,10.22,0,0,0-.92-2.76l-.06-.11v0c-.33-.92-.21-1.16.21-.89l.36.29a2.81,2.81,0,0,1,.78,1.46c0,.19.05.44.13.81a35.91,35.91,0,0,0,1.21,3.86c-.19-1.06-.19-1.45-.53-3.33a11,11,0,0,0-.92-3c-.38-1,0-1.31.46-.85a5,5,0,0,1,1.54,2.78c.09.43.16.72.22.93s.07.54.1.85a15.88,15.88,0,0,1,0,2.61,20.48,20.48,0,0,0,.21-3.42" transform="translate(-626.45 -217.24)"/><path class="cls-6" d="M646.63,252.39l-4.72-5.54c-6.9-8.36-11-9.28-11-9.28-.16-.05-.85-.25-.87.14a1.11,1.11,0,0,0,1,1.12l.32.07a13.37,13.37,0,0,1,5.15,3.1c3,2.77,9.87,9.48,10.5,11.67a2.12,2.12,0,0,0-.39-1.26" transform="translate(-626.45 -217.24)"/><polygon points="2.55 2.55 88.12 2.54 88.12 63.3 90.65 63.3 90.65 61.14 90.66 61.14 90.66 1.27 90.66 0 89.39 0 1.28 0.01 0.01 0.01 0.01 1.28 0 63.3 2.55 63.3 2.55 2.55"/><path d="M626.46,283.44a29.51,29.51,0,0,0,1,7.18l0,.06A20.42,20.42,0,0,0,641.67,304l.21.06.14,0,.55.13a74.2,74.2,0,0,0,9,1.49l4.07.44.31,0c1.8.14,3.18.33,4.22.5.5.07,1,.17,1.48.29a9.32,9.32,0,0,1,1.16.32h0a15.48,15.48,0,0,1,9,7.8v0a15.48,15.48,0,0,1,9-7.79h0a9.1,9.1,0,0,1,1.16-.32c.49-.12,1-.22,1.48-.29,1-.17,2.42-.36,4.22-.5l.31,0,4.07-.44a74.25,74.25,0,0,0,9-1.49l.55-.13.14,0,.21-.06a20.42,20.42,0,0,0,14.18-13.33l0-.05a24.83,24.83,0,0,0,1-6.44v-3.63h-2.53v2.93h0v.11a25.45,25.45,0,0,1-.51,4.65,17.37,17.37,0,0,1-13.87,13.83v0c-.73.15-3.42.72-6.93,1.15-4.07.5-6.8.77-9.91,1.23l-.38.07a21.3,21.3,0,0,0-11.18,5.21h0a21.3,21.3,0,0,0-11.17-5.21l-.38-.07c-3.11-.46-5.84-.73-9.91-1.23-3.52-.43-6.2-1-6.93-1.15v0a17.37,17.37,0,0,1-13.87-13.83,25.52,25.52,0,0,1-.51-4.65v-3.06h-2.55v2.87s0,0,0,0" transform="translate(-626.45 -217.24)"/><polygon class="cls-6" points="37.44 48.09 37.44 49.97 35.82 49.97 35.82 62.58 33.11 62.58 33.11 49.97 31.5 49.97 31.5 48.09 37.44 48.09"/><path class="cls-6" d="M672.64,265.33v11.39a9.64,9.64,0,0,1-.08,1.49,1.93,1.93,0,0,1-.46.88,2.38,2.38,0,0,1-1,.69,4.22,4.22,0,0,1-1.47.23,4.58,4.58,0,0,1-1.66-.28,2.47,2.47,0,0,1-1.08-.72,1.88,1.88,0,0,1-.42-.94,20.48,20.48,0,0,1-.06-2.07V265.33h2.71v12.16a2.41,2.41,0,0,0,.08.78.31.31,0,0,0,.31.17.33.33,0,0,0,.35-.19,3,3,0,0,0,.08-.89v-12Z" transform="translate(-626.45 -217.24)"/><rect class="cls-6" x="49.18" y="48.09" width="2.71" height="14.5"/><polygon class="cls-6" points="57.64 48.09 57.64 60.71 59.29 60.71 59.29 62.58 54.93 62.58 54.93 48.09 57.64 48.09"/><rect class="cls-6" x="37.25" y="55.93" width="1.35" height="1.79"/><rect class="cls-6" x="47" y="55.89" width="1.35" height="1.79"/><rect class="cls-6" x="52.76" y="55.89" width="1.35" height="1.79"/></g></svg>