<svg id="Layer_1" data-name="Layer 1" xmlns="http://www.w3.org/2000/svg" viewBox="0 0 72.01 50.94"><defs><style>.cls-1{fill:#fbfaf4;}.cls-2{fill:#7f8083;}.cls-3{fill:#3f4045;}</style></defs><title>ishavskatedralen</title><polygon class="cls-1" points="0 50.94 72.01 50.94 60.73 19.74 56.08 19.74 55.25 22.23 52.26 22.23 51.27 25.22 48.61 25.22 47.62 27.87 45.96 27.87 44.96 24.56 42.31 24.56 41.31 21.57 38.66 21.57 37.66 18.25 35.01 18.25 33.68 14.93 31.03 14.93 29.7 11.61 27.38 11.61 26.38 8.3 23.73 8.3 22.4 3.98 17.42 0 0 50.94"/><polygon class="cls-2" points="1.25 50.94 17.25 3.15 34.18 50.94 1.25 50.94"/><polygon class="cls-3" points="6.91 50.94 34.34 50.94 20.08 11.61 6.91 50.94"/><polygon class="cls-1" points="18.42 4.65 18.42 50.94 20 50.94 20 10.62 18.42 4.65"/><rect class="cls-1" x="14.1" y="16.59" width="8.3" height="0.9"/><polygon class="cls-2" points="48.12 28.04 48.78 27.05 56.8 50.94 55.85 50.94 48.12 28.04"/><polygon class="cls-2" points="51.81 24.92 52.48 23.92 61.78 50.94 60.83 50.94 51.81 24.92"/><polygon class="cls-2" points="55.52 22.27 56.18 21.27 66.43 50.94 65.48 50.94 55.52 22.27"/></svg>