<svg id="Layer_1" data-name="Layer 1" xmlns="http://www.w3.org/2000/svg" viewBox="0 0 54.88 57.25"><defs><style>.cls-1{fill:#fbfaf4;}.cls-2{fill:#7f8083;}.cls-3{fill:#3f4045;}</style></defs><title>nidarosdomen</title><polygon class="cls-1" points="41.16 6.15 41.16 26.02 13.72 26.02 13.72 6.15 0 6.15 0 57.25 54.88 57.25 54.88 6.15 41.16 6.15"/><polygon class="cls-2" points="18.45 23.18 26.97 8.99 26.97 3.31 27.91 3.31 27.91 26.02 18.45 26.02 18.45 23.18"/><polyline class="cls-2" points="51.57 45.9 3.31 45.9 3.31 27.92 51.57 27.92"/><path class="cls-2" d="M942,562.75l-1.13-1.36a1.23,1.23,0,0,0-1.89,0l-1.14,1.36a1.23,1.23,0,0,0-.29.79v5.71h4.73v-5.71a1.23,1.23,0,0,0-.28-.79" transform="translate(-932.36 -512)"/><path class="cls-2" d="M948.16,562.75,947,561.39a1.23,1.23,0,0,0-1.89,0L944,562.75a1.23,1.23,0,0,0-.29.79v5.71h4.73v-5.71a1.23,1.23,0,0,0-.28-.79" transform="translate(-932.36 -512)"/><path class="cls-2" d="M954.31,562.75l-1.13-1.36a1.23,1.23,0,0,0-1.89,0l-1.14,1.36a1.23,1.23,0,0,0-.29.79v5.71h4.73v-5.71a1.23,1.23,0,0,0-.28-.79" transform="translate(-932.36 -512)"/><path class="cls-3" d="M962.3,561.34l-1.36-1.63a1.48,1.48,0,0,0-2.27,0l-1.36,1.63a1.48,1.48,0,0,0-.34.95v6.85h5.68v-6.85a1.48,1.48,0,0,0-.34-.95" transform="translate(-932.36 -512)"/><polyline class="cls-1" points="35.48 46.37 19.87 46.37 19.87 27.44 35.48 27.44"/><polygon class="cls-3" points="7.1 31.7 5.68 28.86 4.26 31.7 4.26 41.16 7.1 41.16 7.1 31.7"/><polygon class="cls-3" points="10.88 31.7 9.46 28.86 8.04 31.7 8.04 41.16 10.88 41.16 10.88 31.7"/><polygon class="cls-3" points="14.67 31.7 13.25 28.86 11.83 31.7 11.83 41.16 14.67 41.16 14.67 31.7"/><polygon class="cls-3" points="25.72 21.25 24.69 19.18 23.66 21.25 23.66 25.29 25.72 25.29 25.72 21.25"/><polygon class="cls-3" points="28.47 21.25 27.44 19.18 26.41 21.25 26.41 25.29 28.47 25.29 28.47 21.25"/><polygon class="cls-3" points="31.23 21.25 30.2 19.18 29.16 21.25 29.16 25.29 31.23 25.29 31.23 21.25"/><polygon class="cls-3" points="18.45 31.7 17.03 28.86 15.61 31.7 15.61 41.16 18.45 41.16 18.45 31.7"/><path class="cls-3" d="M960.75,547.48a.95.95,0,1,0-.95.95.95.95,0,0,0,.95-.95" transform="translate(-932.36 -512)"/><polygon class="cls-3" points="13.72 6.15 11.83 1.42 9.94 6.15 13.72 6.15"/><polygon class="cls-3" points="3.79 4.73 1.89 0 0 4.73 3.79 4.73"/><rect class="cls-3" y="4.73" width="3.78" height="1.42"/><path class="cls-2" d="M937.21,527.16l1.15-1.65a.63.63,0,0,1,1,0l1.15,1.65a.63.63,0,0,1,.11.36V538h-3.57v-10.5a.63.63,0,0,1,.11-.36" transform="translate(-932.36 -512)"/><rect class="cls-3" x="17.03" y="19.87" width="2.37" height="6.15"/><polygon class="cls-3" points="23.18 18.45 27.44 10.88 27.44 18.45 23.18 18.45"/><polygon class="cls-2" points="36.43 23.18 27.91 8.99 27.91 3.31 26.97 3.31 26.97 26.02 36.43 26.02 36.43 23.18"/><path class="cls-2" d="M977.6,562.75l1.13-1.36a1.23,1.23,0,0,1,1.89,0l1.13,1.36a1.23,1.23,0,0,1,.29.79v5.71h-4.73v-5.71a1.23,1.23,0,0,1,.29-.79" transform="translate(-932.36 -512)"/><path class="cls-2" d="M971.44,562.75l1.13-1.36a1.23,1.23,0,0,1,1.89,0l1.14,1.36a1.23,1.23,0,0,1,.29.79v5.71h-4.73v-5.71a1.23,1.23,0,0,1,.29-.79" transform="translate(-932.36 -512)"/><path class="cls-2" d="M965.29,562.75l1.13-1.36a1.23,1.23,0,0,1,1.89,0l1.13,1.36a1.23,1.23,0,0,1,.29.79v5.71H965v-5.71a1.23,1.23,0,0,1,.29-.79" transform="translate(-932.36 -512)"/><path class="cls-3" d="M957.31,561.34l1.36-1.63a1.48,1.48,0,0,1,2.27,0l1.36,1.63a1.48,1.48,0,0,1,.34.95v7H957v-7a1.48,1.48,0,0,1,.34-.95" transform="translate(-932.36 -512)"/><polygon class="cls-3" points="47.79 31.7 49.21 28.86 50.63 31.7 50.63 41.16 47.79 41.16 47.79 31.7"/><polygon class="cls-3" points="44 31.7 45.42 28.86 46.84 31.7 46.84 41.16 44 41.16 44 31.7"/><polygon class="cls-3" points="40.22 31.7 41.64 28.86 43.06 31.7 43.06 41.16 40.22 41.16 40.22 31.7"/><polygon class="cls-3" points="29.16 21.25 30.2 19.18 31.23 21.25 31.23 25.29 29.16 25.29 29.16 21.25"/><polygon class="cls-3" points="26.41 21.25 27.44 19.18 28.48 21.25 28.48 25.29 26.41 25.29 26.41 21.25"/><polygon class="cls-3" points="23.66 21.25 24.69 19.18 25.72 21.25 25.72 25.29 23.66 25.29 23.66 21.25"/><polygon class="cls-3" points="36.43 31.7 37.85 28.86 39.27 31.7 39.27 41.16 36.43 41.16 36.43 31.7"/><polygon class="cls-3" points="41.16 6.15 43.05 1.42 44.95 6.15 41.16 6.15"/><polygon class="cls-3" points="51.1 4.73 52.99 0 54.88 4.73 51.1 4.73"/><rect class="cls-3" x="51.1" y="4.73" width="3.78" height="1.42"/><path class="cls-2" d="M982.4,527.16l-1.15-1.65a.63.63,0,0,0-1,0l-1.15,1.65a.63.63,0,0,0-.11.36V538h3.57v-10.5a.63.63,0,0,0-.11-.36" transform="translate(-932.36 -512)"/><rect class="cls-3" x="35.48" y="19.87" width="2.37" height="6.15"/><polygon class="cls-3" points="31.7 18.45 27.44 10.88 27.44 18.45 31.7 18.45"/><polygon class="cls-3" points="32.17 40.69 22.71 40.69 22.71 32.41 27.46 24.13 32.17 32.41 32.17 40.69"/><path class="cls-1" d="M964.06,547.48a4.26,4.26,0,1,0-4.26,4.26,4.26,4.26,0,0,0,4.26-4.26" transform="translate(-932.36 -512)"/><path class="cls-3" d="M958.86,547.48a.95.95,0,1,1,.95.95.95.95,0,0,1-.95-.95" transform="translate(-932.36 -512)"/></svg>