<svg id="Layer_1" data-name="Layer 1" xmlns="http://www.w3.org/2000/svg" viewBox="0 0 115.93 43.31"><defs><style>.cls-1{fill:#fbfaf4;}.cls-2{fill:#3f4045;}.cls-3{fill:#7f8083;}.cls-4{fill:none;stroke:#fbfaf4;stroke-miterlimit:10;stroke-width:0.24px;}</style></defs><title>slottet</title><polygon class="cls-1" points="115.76 35.3 0 35.3 0 43.3 53.16 43.3 53.16 43.31 115.26 43.31 115.26 43.3 115.76 43.3 115.76 35.3"/><polygon class="cls-2" points="115.34 17.44 0 17.44 0 35.38 115.34 35.13 115.34 17.44"/><polygon class="cls-3" points="115.92 17.61 0.17 17.61 0.17 35.3 52.99 35.3 52.99 35.31 115.09 35.31 115.09 35.3 115.92 35.3 115.92 17.61"/><path class="cls-3" d="M948,556h0a1.26,1.26,0,0,0-.73,1.07v5.19h3.55v-5.19a1.26,1.26,0,0,0-.73-1.07,2.19,2.19,0,0,0-2.09,0" transform="translate(-901.84 -518.98)"/><path class="cls-3" d="M953.2,556h0a1.26,1.26,0,0,0-.73,1.07v5.19H956v-5.19a1.26,1.26,0,0,0-.73-1.07,2.19,2.19,0,0,0-2.09,0" transform="translate(-901.84 -518.98)"/><path class="cls-3" d="M958.42,556h0a1.26,1.26,0,0,0-.73,1.07v5.19h3.55v-5.19a1.26,1.26,0,0,0-.73-1.07,2.19,2.19,0,0,0-2.09,0" transform="translate(-901.84 -518.98)"/><rect class="cls-2" x="56.95" y="13.65" width="1.35" height="0.51"/><rect class="cls-2" y="16.68" width="2.61" height="0.76"/><rect class="cls-2" x="14.41" y="16.68" width="3.03" height="0.76"/><rect class="cls-2" x="42.04" y="16.68" width="10.19" height="0.76"/><rect class="cls-3" x="0.17" y="16.85" width="3.03" height="0.76"/><rect class="cls-3" x="14.57" y="16.85" width="3.03" height="0.76"/><rect class="cls-3" x="42.21" y="16.85" width="10.19" height="0.76"/><polygon class="cls-2" points="42.71 18.28 57.63 13.9 57.04 18.36 42.71 18.28"/><path class="cls-1" d="M945.57,546.48c0,.15,0,.17,0,.08,0-.24,0-.3,0-.08" transform="translate(-901.84 -518.98)"/><path class="cls-1" d="M950.79,546.48c0,.15,0,.17,0,.08,0-.24,0-.3,0-.08" transform="translate(-901.84 -518.98)"/><path class="cls-1" d="M952.33,552.09c0-1.49.14-4.74.14-5.6s-.09-4-.14-5.52a.42.42,0,0,0,0-.84H951a.42.42,0,0,0,0,.84c0,1.64-.12,5.15-.14,5.6,0,.86.05,4.06.07,5.53a.42.42,0,1,0,.34.75h.85a.42.42,0,1,0,.27-.76" transform="translate(-901.84 -518.98)"/><path class="cls-1" d="M956,546.48c0,.15,0,.17,0,.08,0-.24,0-.3,0-.08" transform="translate(-901.84 -518.98)"/><path class="cls-1" d="M957.55,552.09c0-1.49.14-4.74.14-5.6s-.09-4-.14-5.52a.42.42,0,0,0,0-.84h-1.35a.42.42,0,0,0,0,.84c0,1.64-.12,5.15-.14,5.6,0,.86.05,4.06.07,5.53a.42.42,0,1,0,.34.75h.85a.42.42,0,1,0,.27-.76" transform="translate(-901.84 -518.98)"/><path class="cls-1" d="M961.24,546.48c0,.15,0,.17,0,.08,0-.24,0-.3,0-.08" transform="translate(-901.84 -518.98)"/><path class="cls-1" d="M962.78,552.09c0-1.49.14-4.74.14-5.6s-.09-4-.14-5.52a.42.42,0,0,0,0-.84H961.4a.42.42,0,0,0,0,.84c0,1.64-.12,5.15-.14,5.6,0,.86.05,4.06.07,5.53a.42.42,0,1,0,.34.75h.85a.42.42,0,1,0,.27-.76" transform="translate(-901.84 -518.98)"/><path class="cls-1" d="M966.46,546.48c0,.15,0,.17,0,.08,0-.24,0-.3,0-.08" transform="translate(-901.84 -518.98)"/><path class="cls-1" d="M968,552.09c0-1.49.14-4.74.14-5.6s-.09-4-.14-5.52a.42.42,0,0,0,0-.84h-1.35a.42.42,0,0,0,0,.84c0,1.64-.12,5.15-.14,5.6,0,.86.05,4.06.07,5.53a.42.42,0,1,0,.34.75h.85a.42.42,0,1,0,.27-.76" transform="translate(-901.84 -518.98)"/><path class="cls-1" d="M971.68,546.48c0,.15,0,.17,0,.08,0-.24,0-.3,0-.08" transform="translate(-901.84 -518.98)"/><path class="cls-1" d="M973.22,552.09c0-1.49.14-4.74.14-5.6s-.09-4-.14-5.52a.42.42,0,0,0,0-.84h-1.35a.42.42,0,0,0,0,.84c0,1.64-.12,5.15-.14,5.6,0,.86.05,4.06.07,5.53a.42.42,0,1,0,.34.75h.85a.42.42,0,1,0,.27-.76" transform="translate(-901.84 -518.98)"/><polygon class="cls-2" points="57.04 16.38 57.04 14.07 42.75 18.29 43.73 21.57 46.7 19.8 59.65 21.15 59.65 17.44 57.04 16.38"/><polygon class="cls-1" points="57.63 16.38 57.63 14.07 43.05 18.37 43.89 21.15 60.24 21.15 60.24 17.44 57.63 16.38"/><path class="cls-1" d="M947.11,552.09c0-1.49.14-4.74.14-5.6s-.09-4-.14-5.52a.42.42,0,0,0,0-.84h-1.35a.42.42,0,0,0,0,.84c0,1.64-.12,5.15-.14,5.6,0,.86.05,4.06.07,5.53a.42.42,0,1,0,.34.75h.85a.42.42,0,1,0,.27-.76" transform="translate(-901.84 -518.98)"/><rect class="cls-1" x="45.91" y="23.34" width="2.53" height="3.45"/><rect class="cls-2" x="46.34" y="23.84" width="1.68" height="3.03"/><rect class="cls-2" x="45.91" y="23.17" width="2.53" height="0.17"/><rect class="cls-2" x="45.91" y="26.79" width="2.53" height="0.17"/><rect class="cls-1" x="51.14" y="23.34" width="2.53" height="3.45"/><rect class="cls-2" x="51.56" y="23.84" width="1.68" height="3.03"/><rect class="cls-2" x="51.14" y="23.17" width="2.53" height="0.17"/><rect class="cls-2" x="51.14" y="26.79" width="2.53" height="0.17"/><rect class="cls-1" x="56.36" y="23.34" width="2.53" height="3.45"/><rect class="cls-2" x="56.78" y="23.84" width="1.68" height="3.03"/><rect class="cls-2" x="56.36" y="23.17" width="2.53" height="0.17"/><rect class="cls-2" x="56.36" y="26.79" width="2.53" height="0.17"/><rect class="cls-1" x="2.19" y="29.74" width="2.53" height="3.45"/><rect class="cls-2" x="2.61" y="30.24" width="1.68" height="3.03"/><rect class="cls-2" x="2.19" y="29.57" width="2.53" height="0.17"/><rect class="cls-2" x="2.19" y="33.19" width="2.53" height="0.17"/><rect class="cls-1" x="7.61" y="29.74" width="2.53" height="3.45"/><rect class="cls-2" x="8.03" y="30.24" width="1.68" height="3.03"/><rect class="cls-2" x="7.61" y="29.57" width="2.53" height="0.17"/><rect class="cls-2" x="7.61" y="33.19" width="2.53" height="0.17"/><rect class="cls-1" x="13.02" y="29.74" width="2.53" height="3.45"/><rect class="cls-2" x="13.44" y="30.24" width="1.68" height="3.03"/><rect class="cls-2" x="13.02" y="29.57" width="2.53" height="0.17"/><rect class="cls-2" x="13.02" y="33.19" width="2.53" height="0.17"/><rect class="cls-1" x="2.19" y="37.57" width="2.53" height="3.45"/><rect class="cls-2" x="2.61" y="38.08" width="1.68" height="3.03"/><rect class="cls-2" x="2.19" y="37.41" width="2.53" height="0.17"/><rect class="cls-2" x="2.19" y="41.03" width="2.53" height="0.17"/><rect class="cls-1" x="7.61" y="37.57" width="2.53" height="3.45"/><rect class="cls-2" x="8.03" y="38.08" width="1.68" height="3.03"/><rect class="cls-2" x="7.61" y="37.41" width="2.53" height="0.17"/><rect class="cls-2" x="7.61" y="41.03" width="2.53" height="0.17"/><rect class="cls-1" x="13.02" y="37.57" width="2.53" height="3.45"/><rect class="cls-2" x="13.44" y="38.08" width="1.68" height="3.03"/><rect class="cls-2" x="13.02" y="37.41" width="2.53" height="0.17"/><rect class="cls-2" x="13.02" y="41.03" width="2.53" height="0.17"/><rect class="cls-1" x="18.44" y="29.74" width="2.53" height="3.45"/><rect class="cls-2" x="18.86" y="30.24" width="1.68" height="3.03"/><rect class="cls-2" x="18.44" y="29.57" width="2.53" height="0.17"/><rect class="cls-2" x="18.44" y="33.19" width="2.53" height="0.17"/><rect class="cls-1" x="23.85" y="29.74" width="2.53" height="3.45"/><rect class="cls-2" x="24.28" y="30.24" width="1.68" height="3.03"/><rect class="cls-2" x="23.85" y="29.57" width="2.53" height="0.17"/><rect class="cls-2" x="23.85" y="33.19" width="2.53" height="0.17"/><rect class="cls-1" x="29.27" y="29.74" width="2.53" height="3.45"/><rect class="cls-2" x="29.69" y="30.24" width="1.68" height="3.03"/><rect class="cls-2" x="29.27" y="29.57" width="2.53" height="0.17"/><rect class="cls-2" x="29.27" y="33.19" width="2.53" height="0.17"/><rect class="cls-1" x="34.69" y="29.74" width="2.53" height="3.45"/><rect class="cls-2" x="35.11" y="30.24" width="1.68" height="3.03"/><rect class="cls-2" x="34.69" y="29.57" width="2.53" height="0.17"/><rect class="cls-2" x="34.69" y="33.19" width="2.53" height="0.17"/><rect class="cls-1" x="40.1" y="29.74" width="2.53" height="3.45"/><rect class="cls-2" x="40.52" y="30.24" width="1.68" height="3.03"/><rect class="cls-2" x="40.1" y="29.57" width="2.53" height="0.17"/><rect class="cls-2" x="40.1" y="33.19" width="2.53" height="0.17"/><rect class="cls-1" x="45.91" y="29.74" width="2.53" height="3.45"/><rect class="cls-2" x="46.34" y="30.24" width="1.68" height="3.03"/><rect class="cls-2" x="45.91" y="29.57" width="2.53" height="0.17"/><rect class="cls-2" x="45.91" y="33.19" width="2.53" height="0.17"/><rect class="cls-1" x="51.14" y="29.74" width="2.53" height="3.45"/><rect class="cls-2" x="51.56" y="30.24" width="1.68" height="3.03"/><rect class="cls-2" x="51.14" y="29.57" width="2.53" height="0.17"/><rect class="cls-2" x="51.14" y="33.19" width="2.53" height="0.17"/><rect class="cls-1" x="56.36" y="29.74" width="2.53" height="3.45"/><rect class="cls-2" x="56.78" y="30.24" width="1.68" height="3.03"/><rect class="cls-2" x="56.36" y="29.57" width="2.53" height="0.17"/><rect class="cls-2" x="56.36" y="33.19" width="2.53" height="0.17"/><line class="cls-4" x1="57.63" y1="12.55" x2="57.63" y2="0.08"/><path class="cls-1" d="M959.59,519.1a.13.13,0,1,0-.13.13.13.13,0,0,0,.13-.13" transform="translate(-901.84 -518.98)"/><path class="cls-1" d="M959.34,521.08c-.24,0-.22.71-.48,1.22s-.29.31-.29.31.2-.43.28-.62-.13-.2,0-.37a3.86,3.86,0,0,0,.28-1.45,1.48,1.48,0,0,1,.21-.79Z" transform="translate(-901.84 -518.98)"/><path class="cls-1" d="M960.14,532.49h0v0l0-.06h0l0,0c-.1-.15-.27-.29-.27-.47a.34.34,0,1,0-.67,0c0,.18-.17.32-.27.47l0,0h0l0,.06v0a.23.23,0,0,0,0,.05.75.75,0,0,1,1,.34.34.34,0,0,0,.34-.34.31.31,0,0,0,0-.05" transform="translate(-901.84 -518.98)"/><path class="cls-2" d="M921.07,556.91h0a.84.84,0,0,0-.35.68v2.58h1.68v-2.58a.84.84,0,0,0-1.33-.68" transform="translate(-901.84 -518.98)"/><path class="cls-2" d="M926.47,556.91h0a.84.84,0,0,0-.35.68v2.58h1.68v-2.58a.84.84,0,0,0-1.33-.68" transform="translate(-901.84 -518.98)"/><path class="cls-2" d="M931.86,556.91h0a.84.84,0,0,0-.35.68v2.58h1.68v-2.58a.84.84,0,0,0-1.33-.68" transform="translate(-901.84 -518.98)"/><path class="cls-2" d="M937.25,556.91h0a.84.84,0,0,0-.35.68v2.58h1.68v-2.58a.84.84,0,0,0-1.33-.68" transform="translate(-901.84 -518.98)"/><path class="cls-2" d="M942.64,556.91h0a.84.84,0,0,0-.35.68v2.58H944v-2.58a.84.84,0,0,0-1.33-.68" transform="translate(-901.84 -518.98)"/><path class="cls-2" d="M948.53,556.91h0a.84.84,0,0,0-.35.68v2.58h1.68v-2.58a.84.84,0,0,0-1.33-.68" transform="translate(-901.84 -518.98)"/><path class="cls-2" d="M953.75,556.91h0a.84.84,0,0,0-.35.68v2.58h1.68v-2.58a.84.84,0,0,0-1.33-.68" transform="translate(-901.84 -518.98)"/><path class="cls-2" d="M957.75,556.75a1,1,0,0,0-.06.34v5.19h3.55v-5.19a1,1,0,0,0-.06-.34Z" transform="translate(-901.84 -518.98)"/><path class="cls-3" d="M971,556h0a1.26,1.26,0,0,1,.73,1.07v5.19h-3.55V557.1a1.26,1.26,0,0,1,.73-1.07,2.19,2.19,0,0,1,2.09,0" transform="translate(-901.84 -518.98)"/><path class="cls-3" d="M965.74,556h0a1.26,1.26,0,0,1,.73,1.07v5.19h-3.55V557.1a1.26,1.26,0,0,1,.73-1.07,2.19,2.19,0,0,1,2.09,0" transform="translate(-901.84 -518.98)"/><path class="cls-3" d="M960.52,556h0a1.26,1.26,0,0,1,.73,1.07v5.19H957.7V557.1a1.26,1.26,0,0,1,.73-1.07,2.19,2.19,0,0,1,2.09,0" transform="translate(-901.84 -518.98)"/><line class="cls-2" x1="115.26" y1="17.45" x2="115.26" y2="35.39"/><rect class="cls-2" x="112.65" y="16.69" width="2.61" height="0.76"/><rect class="cls-2" x="97.82" y="16.69" width="3.03" height="0.76"/><rect class="cls-2" x="63.02" y="16.69" width="10.19" height="0.76"/><rect class="cls-3" x="112.06" y="16.86" width="3.03" height="0.76"/><rect class="cls-3" x="97.65" y="16.86" width="3.03" height="0.76"/><rect class="cls-3" x="62.86" y="16.86" width="10.19" height="0.76"/><polygon class="cls-2" points="72.55 18.29 57.63 13.91 58.22 18.38 72.55 18.29"/><path class="cls-1" d="M973.37,546.49c0,.15,0,.17,0,.08,0-.24,0-.3,0-.08" transform="translate(-901.84 -518.98)"/><path class="cls-1" d="M968.15,546.49c0,.15,0,.17,0,.08,0-.24,0-.3,0-.08" transform="translate(-901.84 -518.98)"/><path class="cls-1" d="M966.61,552.1c0-1.49-.14-4.74-.14-5.6s.09-4,.14-5.52a.42.42,0,0,1,0-.84H968a.42.42,0,0,1,0,.84c0,1.64.12,5.15.14,5.6,0,.86-.05,4.06-.07,5.53a.42.42,0,1,1-.34.75h-.85a.42.42,0,1,1-.27-.76" transform="translate(-901.84 -518.98)"/><path class="cls-1" d="M962.93,546.49c0,.15,0,.17,0,.08,0-.24,0-.3,0-.08" transform="translate(-901.84 -518.98)"/><path class="cls-1" d="M961.39,552.1c0-1.49-.14-4.74-.14-5.6s.09-4,.14-5.52a.42.42,0,0,1,0-.84h1.35a.42.42,0,0,1,0,.84c0,1.64.12,5.15.14,5.6,0,.86-.05,4.06-.07,5.53a.42.42,0,1,1-.34.75h-.85a.42.42,0,1,1-.27-.76" transform="translate(-901.84 -518.98)"/><path class="cls-1" d="M957.7,546.49c0,.15,0,.17,0,.08,0-.24,0-.3,0-.08" transform="translate(-901.84 -518.98)"/><path class="cls-1" d="M956.16,552.1c0-1.49-.15-4.74-.15-5.6s.09-4,.14-5.52a.42.42,0,0,1,0-.84h1.35a.42.42,0,0,1,0,.84c0,1.64.12,5.15.14,5.6,0,.86-.05,4.06-.07,5.53a.42.42,0,1,1-.34.75h-.85a.42.42,0,1,1-.27-.76" transform="translate(-901.84 -518.98)"/><polygon class="cls-2" points="58.22 16.39 58.22 14.08 72.5 18.3 71.53 21.58 68.56 19.81 55.61 21.16 55.61 17.45 58.22 16.39"/><polygon class="cls-1" points="57.63 16.39 57.63 14.08 72.21 18.38 71.36 21.16 55.02 21.16 55.02 17.45 57.63 16.39"/><path class="cls-1" d="M971.83,552.1c0-1.49-.14-4.74-.14-5.6s.09-4,.14-5.52a.42.42,0,0,1,0-.84h1.35a.42.42,0,0,1,0,.84c0,1.64.12,5.15.14,5.6,0,.86-.05,4.06-.07,5.53a.42.42,0,1,1-.34.75h-.85a.42.42,0,1,1-.27-.76" transform="translate(-901.84 -518.98)"/><rect class="cls-1" x="66.82" y="23.35" width="2.53" height="3.45"/><rect class="cls-2" x="67.24" y="23.85" width="1.68" height="3.03"/><rect class="cls-2" x="66.82" y="23.18" width="2.53" height="0.17"/><rect class="cls-2" x="66.82" y="26.8" width="2.53" height="0.17"/><rect class="cls-1" x="61.59" y="23.35" width="2.53" height="3.45"/><rect class="cls-2" x="62.01" y="23.85" width="1.68" height="3.03"/><rect class="cls-2" x="61.59" y="23.18" width="2.53" height="0.17"/><rect class="cls-2" x="61.59" y="26.8" width="2.53" height="0.17"/><rect class="cls-1" x="56.37" y="23.35" width="2.53" height="3.45"/><rect class="cls-2" x="56.79" y="23.85" width="1.68" height="3.03"/><rect class="cls-2" x="56.37" y="23.18" width="2.53" height="0.17"/><rect class="cls-2" x="56.37" y="26.8" width="2.53" height="0.17"/><rect class="cls-1" x="110.54" y="29.75" width="2.53" height="3.45"/><rect class="cls-2" x="110.96" y="30.26" width="1.68" height="3.03"/><rect class="cls-2" x="110.54" y="29.58" width="2.53" height="0.17"/><rect class="cls-2" x="110.54" y="33.2" width="2.53" height="0.17"/><rect class="cls-1" x="105.12" y="29.75" width="2.53" height="3.45"/><rect class="cls-2" x="105.55" y="30.26" width="1.68" height="3.03"/><rect class="cls-2" x="105.12" y="29.58" width="2.53" height="0.17"/><rect class="cls-2" x="105.12" y="33.2" width="2.53" height="0.17"/><rect class="cls-1" x="99.71" y="29.75" width="2.53" height="3.45"/><rect class="cls-2" x="100.13" y="30.26" width="1.68" height="3.03"/><rect class="cls-2" x="99.71" y="29.58" width="2.53" height="0.17"/><rect class="cls-2" x="99.71" y="33.2" width="2.53" height="0.17"/><rect class="cls-1" x="110.54" y="37.59" width="2.53" height="3.45"/><rect class="cls-2" x="110.96" y="38.09" width="1.68" height="3.03"/><rect class="cls-2" x="110.54" y="37.42" width="2.53" height="0.17"/><rect class="cls-2" x="110.54" y="41.04" width="2.53" height="0.17"/><rect class="cls-1" x="105.12" y="37.59" width="2.53" height="3.45"/><rect class="cls-2" x="105.55" y="38.09" width="1.68" height="3.03"/><rect class="cls-2" x="105.12" y="37.42" width="2.53" height="0.17"/><rect class="cls-2" x="105.12" y="41.04" width="2.53" height="0.17"/><rect class="cls-1" x="99.71" y="37.59" width="2.53" height="3.45"/><rect class="cls-2" x="100.13" y="38.09" width="1.68" height="3.03"/><rect class="cls-2" x="99.71" y="37.42" width="2.53" height="0.17"/><rect class="cls-2" x="99.71" y="41.04" width="2.53" height="0.17"/><rect class="cls-1" x="94.29" y="29.75" width="2.53" height="3.45"/><rect class="cls-2" x="94.71" y="30.26" width="1.68" height="3.03"/><rect class="cls-2" x="94.29" y="29.58" width="2.53" height="0.17"/><rect class="cls-2" x="94.29" y="33.2" width="2.53" height="0.17"/><rect class="cls-1" x="88.88" y="29.75" width="2.53" height="3.45"/><rect class="cls-2" x="89.3" y="30.26" width="1.68" height="3.03"/><rect class="cls-2" x="88.88" y="29.58" width="2.53" height="0.17"/><rect class="cls-2" x="88.88" y="33.2" width="2.53" height="0.17"/><rect class="cls-1" x="83.46" y="29.75" width="2.53" height="3.45"/><rect class="cls-2" x="83.88" y="30.26" width="1.68" height="3.03"/><rect class="cls-2" x="83.46" y="29.58" width="2.53" height="0.17"/><rect class="cls-2" x="83.46" y="33.2" width="2.53" height="0.17"/><rect class="cls-1" x="78.04" y="29.75" width="2.53" height="3.45"/><rect class="cls-2" x="78.47" y="30.26" width="1.68" height="3.03"/><rect class="cls-2" x="78.04" y="29.58" width="2.53" height="0.17"/><rect class="cls-2" x="78.04" y="33.2" width="2.53" height="0.17"/><rect class="cls-1" x="72.63" y="29.75" width="2.53" height="3.45"/><rect class="cls-2" x="73.05" y="30.26" width="1.68" height="3.03"/><rect class="cls-2" x="72.63" y="29.58" width="2.53" height="0.17"/><rect class="cls-2" x="72.63" y="33.2" width="2.53" height="0.17"/><rect class="cls-1" x="66.82" y="29.75" width="2.53" height="3.45"/><rect class="cls-2" x="67.24" y="30.26" width="1.68" height="3.03"/><rect class="cls-2" x="66.82" y="29.58" width="2.53" height="0.17"/><rect class="cls-2" x="66.82" y="33.2" width="2.53" height="0.17"/><rect class="cls-1" x="61.59" y="29.75" width="2.53" height="3.45"/><rect class="cls-2" x="62.01" y="30.26" width="1.68" height="3.03"/><rect class="cls-2" x="61.59" y="29.58" width="2.53" height="0.17"/><rect class="cls-2" x="61.59" y="33.2" width="2.53" height="0.17"/><rect class="cls-1" x="56.37" y="29.75" width="2.53" height="3.45"/><rect class="cls-2" x="56.79" y="30.26" width="1.68" height="3.03"/><rect class="cls-2" x="56.37" y="29.58" width="2.53" height="0.17"/><rect class="cls-2" x="56.37" y="33.2" width="2.53" height="0.17"/><path class="cls-2" d="M997.87,556.92h0a.84.84,0,0,1,.35.68v2.58h-1.68V557.6a.84.84,0,0,1,1.33-.68" transform="translate(-901.84 -518.98)"/><path class="cls-2" d="M992.47,556.92h0a.84.84,0,0,1,.35.68v2.58h-1.68V557.6a.84.84,0,0,1,1.33-.68" transform="translate(-901.84 -518.98)"/><path class="cls-2" d="M987.08,556.92h0a.84.84,0,0,1,.35.68v2.58h-1.68V557.6a.84.84,0,0,1,1.33-.68" transform="translate(-901.84 -518.98)"/><path class="cls-2" d="M981.69,556.92h0a.84.84,0,0,1,.35.68v2.58h-1.68V557.6a.84.84,0,0,1,1.33-.68" transform="translate(-901.84 -518.98)"/><path class="cls-2" d="M976.3,556.92h0a.84.84,0,0,1,.35.68v2.58H975V557.6a.84.84,0,0,1,1.33-.68" transform="translate(-901.84 -518.98)"/><path class="cls-2" d="M970.41,556.92h0a.84.84,0,0,1,.35.68v2.58h-1.68V557.6a.84.84,0,0,1,1.33-.68" transform="translate(-901.84 -518.98)"/><path class="cls-2" d="M965.19,556.92h0a.84.84,0,0,1,.35.68v2.58h-1.68V557.6a.84.84,0,0,1,1.33-.68" transform="translate(-901.84 -518.98)"/><path class="cls-2" d="M961.19,556.76a1,1,0,0,1,.06.34v5.19H957.7V557.1a1,1,0,0,1,.06-.34Z" transform="translate(-901.84 -518.98)"/><polygon class="cls-2" points="57.63 33.62 52.23 33.62 42.04 33.62 42.63 35.31 52.23 35.31 57.63 35.31 72.71 35.31 73.3 33.62 57.63 33.62"/><rect class="cls-1" x="2.23" y="23.34" width="2.53" height="3.45"/><rect class="cls-2" x="2.65" y="23.84" width="1.68" height="3.03"/><rect class="cls-2" x="2.23" y="23.17" width="2.53" height="0.17"/><rect class="cls-2" x="2.23" y="26.79" width="2.53" height="0.17"/><rect class="cls-2" x="2.74" y="20.64" width="0.67" height="0.67"/><rect class="cls-1" x="2.82" y="20.72" width="0.51" height="0.51"/><rect class="cls-2" x="3.58" y="20.64" width="0.67" height="0.67"/><rect class="cls-1" x="3.66" y="20.72" width="0.51" height="0.51"/><rect class="cls-1" x="7.64" y="23.34" width="2.53" height="3.45"/><rect class="cls-2" x="8.06" y="23.84" width="1.68" height="3.03"/><rect class="cls-2" x="7.64" y="23.17" width="2.53" height="0.17"/><rect class="cls-2" x="7.64" y="26.79" width="2.53" height="0.17"/><rect class="cls-2" x="8.15" y="20.64" width="0.67" height="0.67"/><rect class="cls-1" x="8.23" y="20.72" width="0.51" height="0.51"/><rect class="cls-2" x="8.99" y="20.64" width="0.67" height="0.67"/><rect class="cls-1" x="9.08" y="20.72" width="0.51" height="0.51"/><rect class="cls-1" x="13.05" y="23.34" width="2.53" height="3.45"/><rect class="cls-2" x="13.47" y="23.84" width="1.68" height="3.03"/><rect class="cls-2" x="13.05" y="23.17" width="2.53" height="0.17"/><rect class="cls-2" x="13.05" y="26.79" width="2.53" height="0.17"/><rect class="cls-2" x="13.56" y="20.64" width="0.67" height="0.67"/><rect class="cls-1" x="13.64" y="20.72" width="0.51" height="0.51"/><rect class="cls-2" x="14.4" y="20.64" width="0.67" height="0.67"/><rect class="cls-1" x="14.48" y="20.72" width="0.51" height="0.51"/><rect class="cls-1" x="18.46" y="23.34" width="2.53" height="3.45"/><rect class="cls-2" x="18.88" y="23.84" width="1.68" height="3.03"/><rect class="cls-2" x="18.46" y="23.17" width="2.53" height="0.17"/><rect class="cls-2" x="18.46" y="26.79" width="2.53" height="0.17"/><rect class="cls-2" x="18.97" y="20.64" width="0.67" height="0.67"/><rect class="cls-1" x="19.05" y="20.72" width="0.51" height="0.51"/><rect class="cls-2" x="19.81" y="20.64" width="0.67" height="0.67"/><rect class="cls-1" x="19.9" y="20.72" width="0.51" height="0.51"/><rect class="cls-1" x="23.87" y="23.34" width="2.53" height="3.45"/><rect class="cls-2" x="24.29" y="23.84" width="1.68" height="3.03"/><rect class="cls-2" x="23.87" y="23.17" width="2.53" height="0.17"/><rect class="cls-2" x="23.87" y="26.79" width="2.53" height="0.17"/><rect class="cls-2" x="24.38" y="20.64" width="0.67" height="0.67"/><rect class="cls-1" x="24.46" y="20.72" width="0.51" height="0.51"/><rect class="cls-2" x="25.22" y="20.64" width="0.67" height="0.67"/><rect class="cls-1" x="25.3" y="20.72" width="0.51" height="0.51"/><rect class="cls-1" x="29.28" y="23.34" width="2.53" height="3.45"/><rect class="cls-2" x="29.7" y="23.84" width="1.68" height="3.03"/><rect class="cls-2" x="29.28" y="23.17" width="2.53" height="0.17"/><rect class="cls-2" x="29.28" y="26.79" width="2.53" height="0.17"/><rect class="cls-2" x="29.79" y="20.64" width="0.67" height="0.67"/><rect class="cls-1" x="29.87" y="20.72" width="0.51" height="0.51"/><rect class="cls-2" x="30.63" y="20.64" width="0.67" height="0.67"/><rect class="cls-1" x="30.71" y="20.72" width="0.51" height="0.51"/><rect class="cls-1" x="34.69" y="23.34" width="2.53" height="3.45"/><rect class="cls-2" x="35.11" y="23.84" width="1.68" height="3.03"/><rect class="cls-2" x="34.69" y="23.17" width="2.53" height="0.17"/><rect class="cls-2" x="34.69" y="26.79" width="2.53" height="0.17"/><rect class="cls-2" x="35.2" y="20.64" width="0.67" height="0.67"/><rect class="cls-1" x="35.28" y="20.72" width="0.51" height="0.51"/><rect class="cls-2" x="36.04" y="20.64" width="0.67" height="0.67"/><rect class="cls-1" x="36.12" y="20.72" width="0.51" height="0.51"/><rect class="cls-1" x="40.1" y="23.34" width="2.53" height="3.45"/><rect class="cls-2" x="40.52" y="23.84" width="1.68" height="3.03"/><rect class="cls-2" x="40.1" y="23.17" width="2.53" height="0.17"/><rect class="cls-2" x="40.1" y="26.79" width="2.53" height="0.17"/><rect class="cls-2" x="40.61" y="20.64" width="0.67" height="0.67"/><rect class="cls-1" x="40.69" y="20.72" width="0.51" height="0.51"/><rect class="cls-2" x="41.45" y="20.64" width="0.67" height="0.67"/><rect class="cls-1" x="41.53" y="20.72" width="0.51" height="0.51"/><rect class="cls-1" x="110.5" y="23.35" width="2.53" height="3.45"/><rect class="cls-2" x="110.92" y="23.85" width="1.68" height="3.03"/><rect class="cls-2" x="110.5" y="23.18" width="2.53" height="0.17"/><rect class="cls-2" x="110.5" y="26.8" width="2.53" height="0.17"/><rect class="cls-2" x="111.85" y="20.65" width="0.67" height="0.67"/><rect class="cls-1" x="111.93" y="20.74" width="0.51" height="0.51"/><rect class="cls-2" x="111" y="20.65" width="0.67" height="0.67"/><rect class="cls-1" x="111.09" y="20.74" width="0.51" height="0.51"/><rect class="cls-1" x="105.09" y="23.35" width="2.53" height="3.45"/><rect class="cls-2" x="105.51" y="23.85" width="1.68" height="3.03"/><rect class="cls-2" x="105.09" y="23.18" width="2.53" height="0.17"/><rect class="cls-2" x="105.09" y="26.8" width="2.53" height="0.17"/><rect class="cls-2" x="106.44" y="20.65" width="0.67" height="0.67"/><rect class="cls-1" x="106.52" y="20.74" width="0.51" height="0.51"/><rect class="cls-2" x="105.59" y="20.65" width="0.67" height="0.67"/><rect class="cls-1" x="105.68" y="20.74" width="0.51" height="0.51"/><rect class="cls-1" x="99.68" y="23.35" width="2.53" height="3.45"/><rect class="cls-2" x="100.1" y="23.85" width="1.68" height="3.03"/><rect class="cls-2" x="99.68" y="23.18" width="2.53" height="0.17"/><rect class="cls-2" x="99.68" y="26.8" width="2.53" height="0.17"/><rect class="cls-2" x="101.03" y="20.65" width="0.67" height="0.67"/><rect class="cls-1" x="101.11" y="20.74" width="0.51" height="0.51"/><rect class="cls-2" x="100.18" y="20.65" width="0.67" height="0.67"/><rect class="cls-1" x="100.27" y="20.74" width="0.51" height="0.51"/><rect class="cls-1" x="94.27" y="23.35" width="2.53" height="3.45"/><rect class="cls-2" x="94.69" y="23.85" width="1.68" height="3.03"/><rect class="cls-2" x="94.27" y="23.18" width="2.53" height="0.17"/><rect class="cls-2" x="94.27" y="26.8" width="2.53" height="0.17"/><rect class="cls-2" x="95.62" y="20.65" width="0.67" height="0.67"/><rect class="cls-1" x="95.7" y="20.74" width="0.51" height="0.51"/><rect class="cls-2" x="94.77" y="20.65" width="0.67" height="0.67"/><rect class="cls-1" x="94.86" y="20.74" width="0.51" height="0.51"/><rect class="cls-1" x="88.86" y="23.35" width="2.53" height="3.45"/><rect class="cls-2" x="89.28" y="23.85" width="1.68" height="3.03"/><rect class="cls-2" x="88.86" y="23.18" width="2.53" height="0.17"/><rect class="cls-2" x="88.86" y="26.8" width="2.53" height="0.17"/><rect class="cls-2" x="90.21" y="20.65" width="0.67" height="0.67"/><rect class="cls-1" x="90.29" y="20.74" width="0.51" height="0.51"/><rect class="cls-2" x="89.36" y="20.65" width="0.67" height="0.67"/><rect class="cls-1" x="89.45" y="20.74" width="0.51" height="0.51"/><rect class="cls-1" x="83.45" y="23.35" width="2.53" height="3.45"/><rect class="cls-2" x="83.87" y="23.85" width="1.68" height="3.03"/><rect class="cls-2" x="83.45" y="23.18" width="2.53" height="0.17"/><rect class="cls-2" x="83.45" y="26.8" width="2.53" height="0.17"/><rect class="cls-2" x="84.8" y="20.65" width="0.67" height="0.67"/><rect class="cls-1" x="84.88" y="20.74" width="0.51" height="0.51"/><rect class="cls-2" x="83.95" y="20.65" width="0.67" height="0.67"/><rect class="cls-1" x="84.04" y="20.74" width="0.51" height="0.51"/><rect class="cls-1" x="78.04" y="23.35" width="2.53" height="3.45"/><rect class="cls-2" x="78.46" y="23.85" width="1.68" height="3.03"/><rect class="cls-2" x="78.04" y="23.18" width="2.53" height="0.17"/><rect class="cls-2" x="78.04" y="26.8" width="2.53" height="0.17"/><rect class="cls-2" x="79.39" y="20.65" width="0.67" height="0.67"/><rect class="cls-1" x="79.47" y="20.74" width="0.51" height="0.51"/><rect class="cls-2" x="78.54" y="20.65" width="0.67" height="0.67"/><rect class="cls-1" x="78.63" y="20.74" width="0.51" height="0.51"/><rect class="cls-1" x="72.63" y="23.35" width="2.53" height="3.45"/><rect class="cls-2" x="73.05" y="23.85" width="1.68" height="3.03"/><rect class="cls-2" x="72.63" y="23.18" width="2.53" height="0.17"/><rect class="cls-2" x="72.63" y="26.8" width="2.53" height="0.17"/><rect class="cls-2" x="73.98" y="20.65" width="0.67" height="0.67"/><rect class="cls-1" x="74.06" y="20.74" width="0.51" height="0.51"/><rect class="cls-2" x="73.14" y="20.65" width="0.67" height="0.67"/><rect class="cls-1" x="73.22" y="20.74" width="0.51" height="0.51"/></svg>